# xmcd
#
# Track frame offsets: 
#        150
#        20703
#        38458
#        55767
#        68643
#        83363
#        99386
#        113040
#        128673
#        143627
#        150139
#
# Disc length: 2211 seconds
#
# Revision: 0
# Processed by: cddbd v1.5.2PL0 Copyright (c) Steve Scherf et al.
# Submitted via: ExactAudioCopyFreeDBPlugin 1.0
#
DISCID=7308a10b
DTITLE=Andy Frasco and the U.N. - Half A Man
DYEAR=2014
DGENRE=Blues Soul Jam
TTITLE0=Sunny Day Soldier
TTITLE1=Shakin Ain't A Crime
TTITLE2=Main Squeeze
TTITLE3=Smoking Dope N' Rock N' Roll
TTITLE4=Pay To See You Smile
TTITLE5=Commitment Deficit Disorder
TTITLE6=Don't Ya Worry
TTITLE7=Stop Fucking Around
TTITLE8=Struggle
TTITLE9=What Would I Do
TTITLE10=All Of My Friends
EXTD=
EXTT0=
EXTT1=
EXTT2=
EXTT3=
EXTT4=
EXTT5=
EXTT6=
EXTT7=
EXTT8=
EXTT9=
EXTT10=
PLAYORDER=
